<svg width="32" height="32" viewBox="0 0 32 32" fill="none" xmlns="http://www.w3.org/2000/svg">
<g clip-path="url(#clip0_1_2)">
<rect width="32" height="32" fill="#090909"/>
<rect x="-3.0359" y="5.00962" width="31.0855" height="31.0855" transform="rotate(-15 -3.0359 5.00962)" fill="white"/>
<path d="M15.1418 5.80725C15.8367 5.22413 16.5877 4.70783 17.3948 4.25835C18.2152 3.79765 18.9859 3.4812 19.7068 3.30899L21.261 6.13829C20.7255 6.31434 20.1523 6.56758 19.5414 6.89801C18.9326 7.20385 18.3743 7.56984 17.8665 7.99597C16.5034 9.13979 15.7247 10.3967 15.5306 11.7666C15.3364 13.1365 15.8449 14.5431 17.056 15.9865C18.2671 17.4298 19.564 18.1748 20.9469 18.2215C22.3297 18.2682 23.7027 17.7196 25.0658 16.5758C25.5736 16.1496 26.0366 15.6701 26.4548 15.137C26.875 14.5794 27.2184 14.0522 27.4847 13.5554L30.0011 15.5773C29.7064 16.2574 29.2609 16.9614 28.6647 17.6893C28.0819 18.4061 27.4431 19.0561 26.7481 19.6392C25.5721 20.626 24.3906 21.3213 23.2036 21.7252C22.0167 22.1291 20.8646 22.2759 19.7473 22.1658C18.6301 22.0557 17.5646 21.7086 16.5507 21.1246C15.5369 20.5405 14.6094 19.7474 13.7684 18.7451C12.9273 17.7428 12.3073 16.6917 11.9082 15.5918C11.5091 14.4919 11.3523 13.3823 11.4379 12.2629C11.5234 11.1436 11.8681 10.0345 12.4719 8.93568C13.0758 7.83688 13.9657 6.79407 15.1418 5.80725Z" fill="black"/>
<path d="M17.2907 27.165L14.0031 29.9236L2.80046 16.5728L6.08805 13.8142L17.2907 27.165Z" fill="black"/>
</g>
<defs>
<clipPath id="clip0_1_2">
<rect width="32" height="32" fill="white"/>
</clipPath>
</defs>
</svg>
