<svg width="32" height="32" viewBox="0 0 32 32" fill="none" xmlns="http://www.w3.org/2000/svg">
<rect x="1" y="1" width="30" height="30" fill="white"/>
<path d="M15.2208 2.06467L17.0773 2.06467L19.9057 8.25802L18.2957 8.96874L16.149 4.08077L14.0024 8.96874L12.3924 8.25802L15.2208 2.06467Z" fill="black"/>
<path d="M11 13.1018C11 12.599 11.0483 12.0962 11.145 11.5933C11.2417 11.0809 11.3819 10.6409 11.5657 10.2734L13.3207 10.6216C13.2047 10.9116 13.108 11.2452 13.0306 11.6224C12.9436 11.9898 12.9001 12.3572 12.9001 12.7247C12.9001 13.711 13.1563 14.4894 13.6688 15.0599C14.1813 15.6304 14.9597 15.9156 16.004 15.9156C17.0483 15.9156 17.8267 15.6304 18.3392 15.0599C18.8517 14.4894 19.1079 13.711 19.1079 12.7247C19.1079 12.3572 19.0693 11.9898 18.9919 11.6224C18.9049 11.2452 18.8033 10.9116 18.6873 10.6216L20.4423 10.2735C20.6261 10.6409 20.7663 11.0809 20.863 11.5933C20.9597 12.0962 21.008 12.599 21.008 13.1018C21.008 13.9527 20.8823 14.7021 20.6309 15.35C20.3795 15.9978 20.0314 16.5393 19.5866 16.9745C19.1418 17.4096 18.6148 17.7384 18.0056 17.9608C17.3964 18.1832 16.7292 18.2944 16.004 18.2944C15.2788 18.2944 14.6116 18.1832 14.0024 17.9608C13.3932 17.7384 12.8662 17.4096 12.4214 16.9745C11.9766 16.5393 11.6285 15.9978 11.3771 15.35C11.1257 14.7021 11 13.9527 11 13.1018Z" fill="black"/>
<path d="M20.8339 19.7986L20.8339 22.1773L11.1741 22.1773L11.1741 19.7986L20.8339 19.7986Z" fill="black"/>
<path d="M12.3924 24.6294L14.0024 23.9186L16.149 28.8066L18.2957 23.9186L19.9057 24.6294L17.0773 30.8227L15.2208 30.8227L12.3924 24.6294Z" fill="black"/>
</svg>
