<svg width="32" height="32" viewBox="0 0 32 32" fill="none" xmlns="http://www.w3.org/2000/svg">
<g clip-path="url(#clip0_1_2)">
<path d="M43.1405 14.9655L43.1405 18.4693L31.4522 23.807L30.1109 20.7686L39.3356 16.7174L30.1109 12.6662L31.4522 9.62781L43.1405 14.9655Z" fill="black"/>
<path d="M22.3109 7C23.2598 7 24.2088 7.09124 25.1577 7.27373C26.1249 7.45622 26.9552 7.72082 27.6486 8.06755L26.9917 11.3797C26.4442 11.1607 25.8146 10.9782 25.103 10.8322C24.4095 10.668 23.7161 10.5859 23.0226 10.5859C21.1612 10.5859 19.6922 11.0695 18.6155 12.0366C17.5389 13.0038 17.0005 14.4728 17.0005 16.4437C17.0005 18.4145 17.5389 19.8836 18.6155 20.8507C19.6922 21.8179 21.1612 22.3015 23.0226 22.3015C23.7161 22.3015 24.4095 22.2285 25.1029 22.0825C25.8146 21.9183 26.4442 21.7267 26.9917 21.5077L27.6486 24.8198C26.9552 25.1665 26.1249 25.4312 25.1577 25.6136C24.2088 25.7961 23.2598 25.8874 22.3109 25.8874C20.705 25.8874 19.2908 25.6501 18.0681 25.1757C16.8454 24.7012 15.8235 24.0443 15.0023 23.2048C14.1811 22.3654 13.5607 21.3708 13.1409 20.2212C12.7212 19.0715 12.5114 17.8123 12.5114 16.4437C12.5114 15.075 12.7212 13.8159 13.141 12.6662C13.5607 11.5165 14.1811 10.522 15.0023 9.68255C15.8235 8.84312 16.8454 8.18616 18.0681 7.7117C19.2908 7.23723 20.705 7 22.3109 7Z" fill="black"/>
<path d="M9.6725 25.5589L5.18333 25.5589L5.18333 7.32848L9.6725 7.32848L9.6725 25.5589Z" fill="black"/>
<path d="M0.555792 9.62781L1.89707 12.6662L-7.32763 16.7174L1.89707 20.7686L0.555791 23.807L-11.1325 18.4693L-11.1325 14.9655L0.555792 9.62781Z" fill="black"/>
</g>
<defs>
<clipPath id="clip0_1_2">
<rect width="32" height="32" fill="white"/>
</clipPath>
</defs>
</svg>
